<svg xmlns="http://www.w3.org/2000/svg" xmlns:xlink="http://www.w3.org/1999/xlink" width="500" zoomAndPan="magnify" viewBox="0 0 375 374.999991" height="500" preserveAspectRatio="xMidYMid meet" version="1.2"><defs><clipPath id="92ab7a3b3e"><path d="M 107.289062 82.402344 L 267.789062 82.402344 L 267.789062 242.902344 L 107.289062 242.902344 Z M 107.289062 82.402344 "/></clipPath></defs><g id="136b6032fd"><g clip-rule="nonzero" clip-path="url(#92ab7a3b3e)"><path style=" stroke:none;fill-rule:nonzero;fill:#3e5f44;fill-opacity:1;" d="M 128.679688 82.402344 C 122.707031 82.402344 117.984375 87.21875 117.984375 93.097656 L 117.984375 137.628906 C 114.140625 138.894531 111.539062 141.320312 109.878906 144.035156 C 107.929688 147.238281 107.289062 150.730469 107.289062 153.671875 L 107.289062 176.425781 C 107.289062 181.160156 109.449219 186.980469 111.453125 192.632812 C 112.472656 195.460938 113.460938 198.203125 114.183594 200.488281 C 114.90625 202.769531 115.3125 204.484375 115.3125 205.375 L 115.3125 215.457031 C 113.683594 216.917969 112.636719 219.019531 112.636719 221.429688 L 112.636719 234.8125 C 112.636719 239.269531 116.257812 242.820312 120.660156 242.820312 L 158.089844 242.820312 C 162.488281 242.820312 166.109375 239.324219 166.109375 234.8125 L 166.109375 221.429688 C 166.109375 218.253906 164.273438 215.457031 161.5 214.160156 C 161.945312 212.324219 162.90625 209.886719 163.953125 206.933594 C 165.175781 203.496094 166.457031 199.386719 166.847656 194.707031 L 200.574219 194.707031 L 207.71875 209.035156 C 205.226562 210.402344 203.542969 212.992188 203.542969 216.082031 L 203.542969 229.464844 C 203.542969 233.867188 207.09375 237.472656 211.5625 237.472656 L 248.992188 237.472656 C 253.464844 237.472656 257.015625 233.867188 257.015625 229.464844 L 257.015625 216.082031 C 257.015625 212.867188 255.132812 210.082031 252.335938 208.785156 L 256.359375 194.707031 L 257.015625 194.707031 C 262.890625 194.707031 267.707031 189.945312 267.707031 184 L 267.707031 93.097656 C 267.707031 87.21875 263 82.402344 257.015625 82.402344 Z M 128.679688 87.75 L 257.015625 87.75 C 259.964844 87.75 262.359375 90.089844 262.359375 93.097656 L 262.359375 184 C 262.359375 187.007812 259.9375 189.359375 257.015625 189.359375 L 257.015625 101.117188 C 257.015625 96.714844 253.476562 93.097656 248.992188 93.097656 L 136.699219 93.097656 C 132.203125 93.097656 128.679688 96.714844 128.679688 101.117188 L 128.679688 146.570312 C 126.730469 146.570312 124.917969 147.070312 123.332031 148.003906 L 123.332031 93.097656 C 123.332031 90.089844 125.726562 87.75 128.679688 87.75 Z M 136.699219 98.441406 L 248.992188 98.441406 C 250.441406 98.441406 251.667969 99.585938 251.667969 101.117188 L 251.667969 163.070312 C 250.816406 162.761719 249.941406 162.609375 248.992188 162.609375 C 247.671875 162.609375 247 162.820312 246.027344 163.167969 C 245.527344 160.703125 242.699219 157.234375 238.296875 157.261719 C 236.308594 157.277344 235.066406 157.917969 234.359375 158.292969 C 233.425781 156.789062 231.265625 154.601562 227.605469 154.601562 C 226.40625 154.601562 225.625 154.796875 224.917969 155.050781 L 224.917969 146.570312 L 243.6875 146.570312 C 247.253906 146.570312 247.253906 141.222656 243.6875 141.222656 L 224.917969 141.222656 L 224.917969 133.199219 C 224.917969 132.253906 224.777344 131.363281 224.472656 130.527344 L 230.738281 130.527344 C 231.824219 133.617188 234.761719 135.875 238.285156 135.875 C 242.78125 135.875 246.320312 132.253906 246.320312 127.851562 C 246.320312 123.453125 242.742188 119.832031 238.285156 119.832031 C 234.789062 119.832031 231.851562 122.089844 230.738281 125.164062 L 184.8125 125.164062 C 181.246094 125.164062 181.246094 130.527344 184.8125 130.527344 L 209.347656 130.527344 C 209.042969 131.363281 208.886719 132.265625 208.886719 133.199219 L 208.886719 141.222656 L 203.082031 141.222656 C 201.96875 138.128906 199.070312 135.886719 195.507812 135.886719 C 191.941406 135.886719 189.058594 138.128906 187.960938 141.222656 L 184.855469 141.222656 C 181.289062 141.222656 181.289062 146.570312 184.855469 146.570312 L 187.945312 146.570312 C 189.046875 149.660156 191.914062 151.902344 195.507812 151.902344 C 199.113281 151.902344 201.996094 149.660156 203.082031 146.570312 L 208.886719 146.570312 L 208.886719 168.695312 L 205.742188 163.210938 C 203.164062 158.753906 197.46875 157.179688 192.945312 159.796875 C 188.363281 162.441406 187.25 168 189.449219 172.425781 L 192.566406 178.652344 L 145.082031 178.652344 C 143.132812 176.171875 141.210938 174.222656 139.386719 171.882812 L 139.386719 157.261719 C 139.386719 153.335938 137.285156 149.898438 134.039062 147.988281 L 134.039062 101.117188 C 134.039062 99.640625 135.167969 98.441406 136.699219 98.441406 Z M 195.519531 103.789062 C 192.011719 103.789062 189.046875 106.046875 187.945312 109.152344 L 184.824219 109.152344 C 181.261719 109.152344 181.261719 114.5 184.824219 114.5 L 187.960938 114.5 C 189.058594 117.578125 191.996094 119.832031 195.519531 119.832031 C 199.042969 119.832031 201.980469 117.578125 203.082031 114.5 L 243.6875 114.5 C 247.253906 114.5 247.253906 109.152344 243.6875 109.152344 L 203.082031 109.152344 C 202.023438 106.058594 199.03125 103.789062 195.519531 103.789062 Z M 158.089844 106.464844 C 157.449219 106.464844 156.851562 106.6875 156.375 107.089844 L 140.335938 120.457031 C 137.589844 122.742188 141.03125 126.851562 143.761719 124.554688 L 144.707031 123.773438 L 144.707031 133.199219 C 141.15625 133.214844 141.15625 138.546875 144.722656 138.546875 L 171.457031 138.546875 C 175.023438 138.546875 175.023438 133.199219 171.457031 133.199219 L 171.457031 123.757812 L 172.417969 124.554688 C 175.148438 126.851562 178.585938 122.742188 175.84375 120.457031 L 159.800781 107.089844 C 159.328125 106.6875 158.730469 106.464844 158.089844 106.464844 Z M 195.519531 109.136719 C 196.96875 109.136719 198.207031 110.28125 198.207031 111.796875 C 198.207031 113.328125 196.984375 114.484375 195.519531 114.484375 C 194.058594 114.484375 192.859375 113.328125 192.859375 111.796875 C 192.859375 110.28125 194.070312 109.136719 195.519531 109.136719 Z M 158.089844 112.617188 L 166.109375 119.304688 L 166.109375 133.199219 L 160.761719 133.199219 L 160.761719 127.851562 C 160.679688 124.371094 155.484375 124.371094 155.414062 127.851562 L 155.414062 133.199219 L 150.054688 133.199219 L 150.054688 119.316406 Z M 238.285156 125.179688 C 239.746094 125.179688 240.972656 126.320312 240.972656 127.851562 C 240.972656 129.386719 239.703125 130.539062 238.285156 130.539062 C 236.863281 130.539062 235.625 129.386719 235.625 127.851562 C 235.625 126.320312 236.835938 125.179688 238.285156 125.179688 Z M 216.910156 130.527344 C 218.34375 130.527344 219.597656 131.683594 219.597656 133.199219 L 219.597656 173.304688 C 219.597656 176.8125 224.917969 176.953125 224.917969 173.304688 L 224.917969 162.609375 C 224.917969 161.078125 226.199219 159.921875 227.605469 159.921875 C 229.011719 159.921875 230.265625 161.078125 230.265625 162.609375 L 230.265625 173.304688 C 230.265625 176.871094 235.625 176.871094 235.625 173.304688 L 235.625 165.269531 C 235.625 163.753906 236.863281 162.609375 238.296875 162.609375 C 239.746094 162.609375 240.972656 163.753906 240.972656 165.269531 L 240.972656 173.304688 C 240.972656 176.871094 246.320312 176.871094 246.320312 173.304688 L 246.320312 170.632812 C 246.320312 169.097656 247.542969 167.957031 248.992188 167.957031 C 250.457031 167.957031 251.667969 169.097656 251.667969 170.632812 L 251.667969 191.644531 L 246.960938 208.0625 L 213.21875 208.0625 L 194.226562 170.03125 C 193.125 167.832031 193.792969 165.464844 195.617188 164.40625 C 197.441406 163.347656 199.921875 163.851562 201.105469 165.882812 L 209.25 179.976562 C 210.617188 182.355469 214.234375 181.394531 214.25 178.652344 L 214.25 133.199219 C 214.25 131.683594 215.476562 130.527344 216.910156 130.527344 Z M 195.507812 141.234375 C 196.96875 141.234375 198.195312 142.363281 198.195312 143.894531 C 198.195312 145.425781 196.914062 146.582031 195.507812 146.582031 C 194.113281 146.582031 192.847656 145.425781 192.847656 143.894531 C 192.847656 142.363281 194.058594 141.234375 195.507812 141.234375 Z M 117.984375 143.40625 L 117.984375 173.304688 C 118.070312 176.800781 123.261719 176.800781 123.332031 173.304688 L 123.332031 157.261719 C 123.332031 154.253906 125.78125 151.914062 128.679688 151.914062 C 131.589844 151.914062 134.039062 154.253906 134.039062 157.261719 L 134.039062 172.523438 C 134.039062 173.445312 134.445312 174.097656 134.554688 174.292969 C 135.960938 176.453125 138.871094 179.570312 140.445312 181.4375 C 142.605469 183.972656 144.722656 187.105469 144.722656 188.078125 L 144.722656 197.367188 C 144.636719 201.015625 150.152344 201.015625 150.070312 197.367188 L 150.070312 194.707031 L 161.5 194.707031 C 161.125 198.496094 160.054688 201.960938 158.925781 205.136719 C 157.867188 208.117188 156.65625 211.015625 156.195312 213.410156 L 120.660156 213.410156 L 120.660156 205.375 C 120.660156 203.453125 120.046875 201.324219 119.265625 198.871094 C 118.488281 196.40625 117.484375 193.636719 116.496094 190.835938 C 114.488281 185.238281 112.636719 179.277344 112.636719 176.425781 L 112.636719 153.671875 C 112.636719 151.566406 113.152344 148.921875 114.433594 146.804688 C 115.253906 145.441406 116.480469 144.214844 117.984375 143.40625 Z M 148.855469 184 L 195.226562 184 L 197.902344 189.359375 L 150.070312 189.359375 L 150.070312 187.925781 C 150.070312 186.351562 149.21875 184.613281 148.855469 184 Z M 211.5625 213.410156 L 248.992188 213.410156 C 250.441406 213.410156 251.667969 214.550781 251.667969 216.082031 L 251.667969 229.464844 C 251.667969 230.984375 250.425781 232.125 248.992188 232.125 L 211.5625 232.125 C 210.101562 232.125 208.886719 230.984375 208.886719 229.464844 L 208.886719 216.082031 C 208.886719 214.550781 210.101562 213.410156 211.5625 213.410156 Z M 120.660156 218.757812 L 158.089844 218.757812 C 159.550781 218.757812 160.761719 219.898438 160.761719 221.429688 L 160.761719 234.8125 C 160.761719 236.332031 159.523438 237.472656 158.089844 237.472656 L 120.660156 237.472656 C 119.167969 237.472656 117.984375 236.273438 117.984375 234.8125 L 117.984375 221.429688 C 117.984375 219.898438 119.183594 218.757812 120.660156 218.757812 Z M 216.910156 221.429688 C 215.433594 221.429688 214.234375 222.628906 214.234375 224.105469 C 214.234375 225.578125 215.433594 226.777344 216.910156 226.777344 C 218.386719 226.777344 219.582031 225.578125 219.582031 224.105469 C 219.582031 222.628906 218.386719 221.429688 216.910156 221.429688 Z M 126.007812 226.777344 C 124.53125 226.777344 123.332031 227.976562 123.332031 229.449219 C 123.332031 230.925781 124.53125 232.125 126.007812 232.125 C 127.480469 232.125 128.679688 230.925781 128.679688 229.449219 C 128.679688 227.976562 127.480469 226.777344 126.007812 226.777344 "/></g><g style="fill:#3e5f44;fill-opacity:1;"><g transform="translate(96.63938, 280.192756)"><path style="stroke:none" d="M 9.234375 -22.6875 L 13.703125 -23.109375 C 13.703125 -23.984375 13.625 -24.90625 13.46875 -25.875 C 13.3125 -26.84375 13.007812 -27.75 12.5625 -28.59375 C 12.113281 -29.40625 11.472656 -30.070312 10.640625 -30.59375 C 9.816406 -31.113281 8.71875 -31.359375 7.34375 -31.328125 C 6.269531 -31.304688 5.351562 -31.078125 4.59375 -30.640625 C 3.832031 -30.203125 3.210938 -29.644531 2.734375 -28.96875 C 2.265625 -28.269531 1.921875 -27.488281 1.703125 -26.625 C 1.492188 -25.769531 1.390625 -24.921875 1.390625 -24.078125 C 1.390625 -23.234375 1.515625 -22.40625 1.765625 -21.59375 C 2.222656 -19.988281 2.96875 -18.382812 4 -16.78125 C 4.507812 -16 5.003906 -15.253906 5.484375 -14.546875 C 5.960938 -13.847656 6.425781 -13.175781 6.875 -12.53125 C 7.101562 -12.21875 7.304688 -11.90625 7.484375 -11.59375 C 7.671875 -11.289062 7.863281 -10.984375 8.0625 -10.671875 C 8.394531 -10.046875 8.671875 -9.445312 8.890625 -8.875 C 9.117188 -8.300781 9.234375 -7.757812 9.234375 -7.25 C 9.234375 -6.269531 9.09375 -5.457031 8.8125 -4.8125 C 8.53125 -4.164062 8.050781 -3.84375 7.375 -3.84375 C 6.894531 -3.84375 6.515625 -3.992188 6.234375 -4.296875 C 5.953125 -4.609375 5.742188 -5.019531 5.609375 -5.53125 C 5.441406 -6 5.335938 -6.550781 5.296875 -7.1875 C 5.253906 -7.820312 5.234375 -8.460938 5.234375 -9.109375 L 0.765625 -8.6875 C 0.765625 -7.53125 0.835938 -6.410156 0.984375 -5.328125 C 1.140625 -4.253906 1.441406 -3.296875 1.890625 -2.453125 C 2.367188 -1.609375 3.035156 -0.929688 3.890625 -0.421875 C 4.753906 0.0859375 5.914062 0.34375 7.375 0.34375 C 8.613281 0.34375 9.640625 0.125 10.453125 -0.3125 C 11.273438 -0.75 11.925781 -1.320312 12.40625 -2.03125 C 12.875 -2.757812 13.207031 -3.585938 13.40625 -4.515625 C 13.601562 -5.441406 13.703125 -6.425781 13.703125 -7.46875 C 13.703125 -8.3125 13.578125 -9.132812 13.328125 -9.9375 C 13.078125 -10.738281 12.753906 -11.53125 12.359375 -12.3125 C 11.960938 -13.101562 11.507812 -13.890625 11 -14.671875 C 10.5 -15.460938 9.984375 -16.25 9.453125 -17.03125 C 8.992188 -17.675781 8.550781 -18.304688 8.125 -18.921875 C 7.707031 -19.546875 7.332031 -20.15625 7 -20.75 C 6.664062 -21.34375 6.390625 -21.910156 6.171875 -22.453125 C 5.960938 -23.003906 5.859375 -23.546875 5.859375 -24.078125 C 5.859375 -24.984375 5.96875 -25.710938 6.1875 -26.265625 C 6.414062 -26.828125 6.828125 -27.125 7.421875 -27.15625 C 7.785156 -27.15625 8.085938 -27.019531 8.328125 -26.75 C 8.566406 -26.488281 8.753906 -26.144531 8.890625 -25.71875 C 9.035156 -25.269531 9.128906 -24.78125 9.171875 -24.25 C 9.210938 -23.71875 9.234375 -23.195312 9.234375 -22.6875 Z M 9.234375 -22.6875 "/></g></g><g style="fill:#3e5f44;fill-opacity:1;"><g transform="translate(111.103171, 280.192756)"><path style="stroke:none" d="M 0.078125 -26.3125 L 4.390625 -26.3125 L 4.390625 0 L 8.9375 0 L 8.9375 -26.3125 L 13.234375 -26.3125 L 13.234375 -31 L 0.078125 -31 Z M 0.078125 -26.3125 "/></g></g><g style="fill:#3e5f44;fill-opacity:1;"><g transform="translate(124.428413, 280.192756)"><path style="stroke:none" d="M 13.53125 -6.375 L 13.53125 -24.625 C 13.476562 -25.894531 13.226562 -27.003906 12.78125 -27.953125 C 12.582031 -28.378906 12.332031 -28.796875 12.03125 -29.203125 C 11.738281 -29.609375 11.382812 -29.96875 10.96875 -30.28125 C 10.539062 -30.59375 10.039062 -30.84375 9.46875 -31.03125 C 8.894531 -31.226562 8.226562 -31.328125 7.46875 -31.328125 C 6.707031 -31.328125 6.03125 -31.226562 5.4375 -31.03125 C 4.84375 -30.84375 4.335938 -30.59375 3.921875 -30.28125 C 3.503906 -29.96875 3.15625 -29.609375 2.875 -29.203125 C 2.59375 -28.796875 2.351562 -28.378906 2.15625 -27.953125 C 1.695312 -27.003906 1.441406 -25.894531 1.390625 -24.625 L 1.390625 -6.375 C 1.441406 -5.070312 1.695312 -3.945312 2.15625 -3 C 2.351562 -2.570312 2.59375 -2.160156 2.875 -1.765625 C 3.15625 -1.378906 3.503906 -1.03125 3.921875 -0.71875 C 4.796875 -0.0078125 5.976562 0.34375 7.46875 0.34375 C 8.925781 0.34375 10.09375 -0.0078125 10.96875 -0.71875 C 11.382812 -1.03125 11.738281 -1.378906 12.03125 -1.765625 C 12.332031 -2.160156 12.582031 -2.570312 12.78125 -3 C 13.226562 -3.945312 13.476562 -5.070312 13.53125 -6.375 Z M 8.984375 -24.625 L 8.984375 -6.375 C 8.984375 -5.863281 8.925781 -5.484375 8.8125 -5.234375 C 8.726562 -4.921875 8.582031 -4.648438 8.375 -4.421875 C 8.164062 -4.203125 7.863281 -4.09375 7.46875 -4.09375 C 7.101562 -4.09375 6.804688 -4.203125 6.578125 -4.421875 C 6.160156 -4.898438 5.953125 -5.550781 5.953125 -6.375 L 5.953125 -24.625 C 5.953125 -25.070312 6.003906 -25.453125 6.109375 -25.765625 C 6.191406 -26.046875 6.335938 -26.304688 6.546875 -26.546875 C 6.765625 -26.785156 7.070312 -26.90625 7.46875 -26.90625 C 7.863281 -26.90625 8.171875 -26.789062 8.390625 -26.5625 C 8.785156 -26.082031 8.984375 -25.4375 8.984375 -24.625 Z M 8.984375 -24.625 "/></g></g><g style="fill:#3e5f44;fill-opacity:1;"><g transform="translate(139.356051, 280.192756)"><path style="stroke:none" d="M 13.53125 -10.625 L 9.28125 -10.625 L 9.28125 -6.375 C 9.28125 -5.863281 9.222656 -5.484375 9.109375 -5.234375 C 8.992188 -4.921875 8.820312 -4.648438 8.59375 -4.421875 C 8.375 -4.203125 8.023438 -4.09375 7.546875 -4.09375 C 7.179688 -4.09375 6.882812 -4.203125 6.65625 -4.421875 C 6.207031 -4.898438 5.972656 -5.550781 5.953125 -6.375 L 5.953125 -24.625 C 5.972656 -24.851562 6 -25.054688 6.03125 -25.234375 C 6.0625 -25.421875 6.101562 -25.597656 6.15625 -25.765625 C 6.269531 -26.046875 6.429688 -26.304688 6.640625 -26.546875 C 6.847656 -26.785156 7.148438 -26.90625 7.546875 -26.90625 C 8.023438 -26.90625 8.378906 -26.789062 8.609375 -26.5625 C 9.054688 -26.082031 9.28125 -25.4375 9.28125 -24.625 L 9.28125 -20.375 L 13.53125 -20.375 L 13.53125 -24.625 C 13.476562 -25.894531 13.226562 -27.003906 12.78125 -27.953125 C 12.582031 -28.378906 12.332031 -28.796875 12.03125 -29.203125 C 11.738281 -29.609375 11.382812 -29.96875 10.96875 -30.28125 C 10.539062 -30.59375 10.039062 -30.84375 9.46875 -31.03125 C 8.894531 -31.226562 8.226562 -31.328125 7.46875 -31.328125 C 6.707031 -31.328125 6.03125 -31.226562 5.4375 -31.03125 C 4.84375 -30.84375 4.335938 -30.59375 3.921875 -30.28125 C 3.503906 -29.96875 3.15625 -29.609375 2.875 -29.203125 C 2.59375 -28.796875 2.351562 -28.378906 2.15625 -27.953125 C 1.695312 -27.003906 1.441406 -25.894531 1.390625 -24.625 L 1.390625 -6.375 C 1.441406 -5.070312 1.695312 -3.945312 2.15625 -3 C 2.351562 -2.570312 2.59375 -2.160156 2.875 -1.765625 C 3.15625 -1.378906 3.503906 -1.03125 3.921875 -0.71875 C 4.796875 -0.0078125 5.976562 0.34375 7.46875 0.34375 C 8.925781 0.34375 10.09375 -0.0078125 10.96875 -0.71875 C 11.382812 -1.03125 11.738281 -1.378906 12.03125 -1.765625 C 12.332031 -2.160156 12.582031 -2.570312 12.78125 -3 C 13.226562 -3.945312 13.476562 -5.070312 13.53125 -6.375 Z M 13.53125 -10.625 "/></g></g><g style="fill:#3e5f44;fill-opacity:1;"><g transform="translate(153.946357, 280.192756)"><path style="stroke:none" d="M 6.234375 -31 L 1.6875 -31 L 1.6875 0 L 6.234375 0 L 6.234375 -10.96875 L 7.296875 -13.5 L 7.546875 -14.125 L 7.671875 -14.125 L 7.796875 -13.5 L 10.96875 0 L 15.390625 0 L 10.671875 -20.796875 L 14.84375 -31 L 10.421875 -31 L 6.625 -20.671875 L 6.40625 -20.15625 L 6.234375 -20.15625 Z M 6.234375 -31 "/></g></g><g style="fill:#3e5f44;fill-opacity:1;"><g transform="translate(169.759549, 280.192756)"><path style="stroke:none" d=""/></g></g><g style="fill:#3e5f44;fill-opacity:1;"><g transform="translate(176.253504, 280.192756)"><path style="stroke:none" d="M 13.53125 -10.625 L 9.28125 -10.625 L 9.28125 -6.375 C 9.28125 -5.863281 9.222656 -5.484375 9.109375 -5.234375 C 8.992188 -4.921875 8.820312 -4.648438 8.59375 -4.421875 C 8.375 -4.203125 8.023438 -4.09375 7.546875 -4.09375 C 7.179688 -4.09375 6.882812 -4.203125 6.65625 -4.421875 C 6.207031 -4.898438 5.972656 -5.550781 5.953125 -6.375 L 5.953125 -24.625 C 5.972656 -24.851562 6 -25.054688 6.03125 -25.234375 C 6.0625 -25.421875 6.101562 -25.597656 6.15625 -25.765625 C 6.269531 -26.046875 6.429688 -26.304688 6.640625 -26.546875 C 6.847656 -26.785156 7.148438 -26.90625 7.546875 -26.90625 C 8.023438 -26.90625 8.378906 -26.789062 8.609375 -26.5625 C 9.054688 -26.082031 9.28125 -25.4375 9.28125 -24.625 L 9.28125 -20.375 L 13.53125 -20.375 L 13.53125 -24.625 C 13.476562 -25.894531 13.226562 -27.003906 12.78125 -27.953125 C 12.582031 -28.378906 12.332031 -28.796875 12.03125 -29.203125 C 11.738281 -29.609375 11.382812 -29.96875 10.96875 -30.28125 C 10.539062 -30.59375 10.039062 -30.84375 9.46875 -31.03125 C 8.894531 -31.226562 8.226562 -31.328125 7.46875 -31.328125 C 6.707031 -31.328125 6.03125 -31.226562 5.4375 -31.03125 C 4.84375 -30.84375 4.335938 -30.59375 3.921875 -30.28125 C 3.503906 -29.96875 3.15625 -29.609375 2.875 -29.203125 C 2.59375 -28.796875 2.351562 -28.378906 2.15625 -27.953125 C 1.695312 -27.003906 1.441406 -25.894531 1.390625 -24.625 L 1.390625 -6.375 C 1.441406 -5.070312 1.695312 -3.945312 2.15625 -3 C 2.351562 -2.570312 2.59375 -2.160156 2.875 -1.765625 C 3.15625 -1.378906 3.503906 -1.03125 3.921875 -0.71875 C 4.796875 -0.0078125 5.976562 0.34375 7.46875 0.34375 C 8.925781 0.34375 10.09375 -0.0078125 10.96875 -0.71875 C 11.382812 -1.03125 11.738281 -1.378906 12.03125 -1.765625 C 12.332031 -2.160156 12.582031 -2.570312 12.78125 -3 C 13.226562 -3.945312 13.476562 -5.070312 13.53125 -6.375 Z M 13.53125 -10.625 "/></g></g><g style="fill:#3e5f44;fill-opacity:1;"><g transform="translate(190.84381, 280.192756)"><path style="stroke:none" d="M 13.53125 -6.375 L 13.53125 -24.625 C 13.476562 -25.894531 13.226562 -27.003906 12.78125 -27.953125 C 12.582031 -28.378906 12.332031 -28.796875 12.03125 -29.203125 C 11.738281 -29.609375 11.382812 -29.96875 10.96875 -30.28125 C 10.539062 -30.59375 10.039062 -30.84375 9.46875 -31.03125 C 8.894531 -31.226562 8.226562 -31.328125 7.46875 -31.328125 C 6.707031 -31.328125 6.03125 -31.226562 5.4375 -31.03125 C 4.84375 -30.84375 4.335938 -30.59375 3.921875 -30.28125 C 3.503906 -29.96875 3.15625 -29.609375 2.875 -29.203125 C 2.59375 -28.796875 2.351562 -28.378906 2.15625 -27.953125 C 1.695312 -27.003906 1.441406 -25.894531 1.390625 -24.625 L 1.390625 -6.375 C 1.441406 -5.070312 1.695312 -3.945312 2.15625 -3 C 2.351562 -2.570312 2.59375 -2.160156 2.875 -1.765625 C 3.15625 -1.378906 3.503906 -1.03125 3.921875 -0.71875 C 4.796875 -0.0078125 5.976562 0.34375 7.46875 0.34375 C 8.925781 0.34375 10.09375 -0.0078125 10.96875 -0.71875 C 11.382812 -1.03125 11.738281 -1.378906 12.03125 -1.765625 C 12.332031 -2.160156 12.582031 -2.570312 12.78125 -3 C 13.226562 -3.945312 13.476562 -5.070312 13.53125 -6.375 Z M 8.984375 -24.625 L 8.984375 -6.375 C 8.984375 -5.863281 8.925781 -5.484375 8.8125 -5.234375 C 8.726562 -4.921875 8.582031 -4.648438 8.375 -4.421875 C 8.164062 -4.203125 7.863281 -4.09375 7.46875 -4.09375 C 7.101562 -4.09375 6.804688 -4.203125 6.578125 -4.421875 C 6.160156 -4.898438 5.953125 -5.550781 5.953125 -6.375 L 5.953125 -24.625 C 5.953125 -25.070312 6.003906 -25.453125 6.109375 -25.765625 C 6.191406 -26.046875 6.335938 -26.304688 6.546875 -26.546875 C 6.765625 -26.785156 7.070312 -26.90625 7.46875 -26.90625 C 7.863281 -26.90625 8.171875 -26.789062 8.390625 -26.5625 C 8.785156 -26.082031 8.984375 -25.4375 8.984375 -24.625 Z M 8.984375 -24.625 "/></g></g><g style="fill:#3e5f44;fill-opacity:1;"><g transform="translate(205.771448, 280.192756)"><path style="stroke:none" d="M 6.5 -16.15625 L 10.921875 0 L 14.96875 0 L 14.96875 -31 L 10.796875 -31 L 10.796875 -13.40625 L 10.546875 -13.40625 L 10.15625 -14.84375 L 5.734375 -31 L 1.6875 -31 L 1.6875 0 L 5.859375 0 L 5.859375 -17.578125 L 6.109375 -17.578125 Z M 6.5 -16.15625 "/></g></g><g style="fill:#3e5f44;fill-opacity:1;"><g transform="translate(222.427997, 280.192756)"><path style="stroke:none" d="M 0.078125 -26.3125 L 4.390625 -26.3125 L 4.390625 0 L 8.9375 0 L 8.9375 -26.3125 L 13.234375 -26.3125 L 13.234375 -31 L 0.078125 -31 Z M 0.078125 -26.3125 "/></g></g><g style="fill:#3e5f44;fill-opacity:1;"><g transform="translate(235.753239, 280.192756)"><path style="stroke:none" d="M 9.828125 0 L 14.375 0 L 11.46875 -15.015625 C 12.34375 -15.609375 12.984375 -16.539062 13.390625 -17.8125 C 13.796875 -19.09375 14 -20.507812 14 -22.0625 C 14 -24.976562 13.382812 -27.195312 12.15625 -28.71875 C 10.9375 -30.238281 8.960938 -31 6.234375 -31 L 1.6875 -31 L 1.6875 0 L 6.234375 0 L 6.234375 -13.078125 L 7.46875 -13.078125 Z M 6.234375 -17.296875 L 6.234375 -26.484375 C 6.546875 -26.484375 6.898438 -26.453125 7.296875 -26.390625 C 7.691406 -26.335938 8.054688 -26.15625 8.390625 -25.84375 C 8.722656 -25.570312 9.007812 -25.117188 9.25 -24.484375 C 9.488281 -23.847656 9.609375 -22.984375 9.609375 -21.890625 C 9.609375 -20.796875 9.488281 -19.941406 9.25 -19.328125 C 9.007812 -18.722656 8.722656 -18.269531 8.390625 -17.96875 C 8.054688 -17.6875 7.691406 -17.503906 7.296875 -17.421875 C 6.898438 -17.335938 6.546875 -17.296875 6.234375 -17.296875 Z M 6.234375 -17.296875 "/></g></g><g style="fill:#3e5f44;fill-opacity:1;"><g transform="translate(250.976068, 280.192756)"><path style="stroke:none" d="M 13.53125 -6.375 L 13.53125 -24.625 C 13.476562 -25.894531 13.226562 -27.003906 12.78125 -27.953125 C 12.582031 -28.378906 12.332031 -28.796875 12.03125 -29.203125 C 11.738281 -29.609375 11.382812 -29.96875 10.96875 -30.28125 C 10.539062 -30.59375 10.039062 -30.84375 9.46875 -31.03125 C 8.894531 -31.226562 8.226562 -31.328125 7.46875 -31.328125 C 6.707031 -31.328125 6.03125 -31.226562 5.4375 -31.03125 C 4.84375 -30.84375 4.335938 -30.59375 3.921875 -30.28125 C 3.503906 -29.96875 3.15625 -29.609375 2.875 -29.203125 C 2.59375 -28.796875 2.351562 -28.378906 2.15625 -27.953125 C 1.695312 -27.003906 1.441406 -25.894531 1.390625 -24.625 L 1.390625 -6.375 C 1.441406 -5.070312 1.695312 -3.945312 2.15625 -3 C 2.351562 -2.570312 2.59375 -2.160156 2.875 -1.765625 C 3.15625 -1.378906 3.503906 -1.03125 3.921875 -0.71875 C 4.796875 -0.0078125 5.976562 0.34375 7.46875 0.34375 C 8.925781 0.34375 10.09375 -0.0078125 10.96875 -0.71875 C 11.382812 -1.03125 11.738281 -1.378906 12.03125 -1.765625 C 12.332031 -2.160156 12.582031 -2.570312 12.78125 -3 C 13.226562 -3.945312 13.476562 -5.070312 13.53125 -6.375 Z M 8.984375 -24.625 L 8.984375 -6.375 C 8.984375 -5.863281 8.925781 -5.484375 8.8125 -5.234375 C 8.726562 -4.921875 8.582031 -4.648438 8.375 -4.421875 C 8.164062 -4.203125 7.863281 -4.09375 7.46875 -4.09375 C 7.101562 -4.09375 6.804688 -4.203125 6.578125 -4.421875 C 6.160156 -4.898438 5.953125 -5.550781 5.953125 -6.375 L 5.953125 -24.625 C 5.953125 -25.070312 6.003906 -25.453125 6.109375 -25.765625 C 6.191406 -26.046875 6.335938 -26.304688 6.546875 -26.546875 C 6.765625 -26.785156 7.070312 -26.90625 7.46875 -26.90625 C 7.863281 -26.90625 8.171875 -26.789062 8.390625 -26.5625 C 8.785156 -26.082031 8.984375 -25.4375 8.984375 -24.625 Z M 8.984375 -24.625 "/></g></g><g style="fill:#3e5f44;fill-opacity:1;"><g transform="translate(265.903706, 280.192756)"><path style="stroke:none" d="M 1.6875 -31 L 1.6875 0 L 12.265625 0 L 12.265625 -4.21875 L 6.234375 -4.21875 L 6.234375 -31 Z M 1.6875 -31 "/></g></g></g></svg>